<?xml version="1.0" encoding="UTF-8"?><svg id="Layer_1" xmlns="http://www.w3.org/2000/svg" viewBox="0 0 196.69 300"><g id="_0HGDTR"><g><path d="M101.72,0c3.37,.81,5.91,2.76,7.86,5.57,1.51,2.18,3.75,3.1,6.24,3.27,4.57,.32,9.16,.42,13.74,.67,1.98,.11,3.95,.33,5.92,.55,4.25,.46,7.04,4.32,7.84,8.06,.25,1.19,.29,2.42,.45,3.89,1.43,.39,3.01,.82,4.59,1.27,5.69,1.6,11.41,3.13,17.07,4.83,5.67,1.71,8.14,6.31,7.13,12.24-.27,1.61,.02,2.49,1.53,3.37,6.19,3.57,12.25,7.36,18.4,11,3.63,2.15,5.48,7.6,3.15,11.74-5.37,9.54-10.6,19.15-16.02,28.66-8.13,14.27-16.39,28.46-24.55,42.71-.33,.57-.38,1.35-.38,2.04-.03,14.9-.03,29.79-.05,44.69-.01,7.17-.52,14.22-4.76,20.42-1.97,2.89-3.78,5.89-5.84,8.72-11.19,15.4-22.43,30.77-33.66,46.14-2.4,3.28-4.78,6.58-7.25,9.8-.38,.5-1.19,.94-1.8,.94-13.36,.05-26.72,.03-40.08,.03-6.17,0-12.34,0-18.51,0-.5,0-1,0-1.64,0,0-.58,0-1.03,0-1.47,.03-14.18-.01-28.36,.11-42.55,.08-9.25,.45-18.48,3.23-27.44,2.3-7.41,5.59-14.23,11-19.9,.45-.47,.82-1.02,1.43-1.8-2.77,.62-5.25,1.05-7.66,1.74-6.92,1.99-11.22-1.98-13.16-7.13-.62-1.64-1.8-3.14-2.96-4.5-2-2.34-3.49-4.83-3.65-8-.1-1.92-.44-3.71-1.65-5.4-1.62-2.28-2.35-4.92-1.43-7.79,.87-2.71-.17-5.27-.61-7.9-3.82-22.83-11.09-44.8-16.7-67.18C6.36,60.52,3.53,49.77,.83,38.99c-.45-1.81-.6-3.7-.79-5.57-.3-3,1-5.45,3.57-6.7,3.15-1.54,6.53-2.67,9.89-3.72,4.67-1.46,9.43-2.68,14.14-4.02,1.35-.39,2.18-1.16,2.54-2.69,.76-3.24,5.05-6.37,8.63-6.48,7.43-.23,14.86-.42,22.29-.61,1.19-.03,2.03-.36,2.78-1.44,2.33-3.29,5.53-4.68,9.63-4.2,3.28,.38,6.51,1.56,9.93,.48,3.27-1.04,6.63-1.76,9.96-2.61C95.36,.93,97.32,.48,99.27,0c.82,0,1.63,0,2.45,0Zm-31.03,161.01c.29-1.23,.58-2.14,.71-3.08,.77-5.17,1.52-10.34,2.24-15.51,.81-5.83,1.54-11.67,2.36-17.5,.78-5.52,1.43-11.07,2.5-16.54,1.83-9.35,10.14-14.24,19.27-11.64,5.5,1.57,10.43,6.78,10.35,13.19-.1,7.28-.36,14.56-.68,21.84-.41,9.21-.96,18.41-1.45,27.62-.14,2.59-.33,5.19-.45,7.78-.19,4.12-.36,8.25-.45,12.37-.01,.5,.37,1.22,.79,1.48,3.09,1.92,6.23,3.76,9.38,5.58,.46,.27,1.05,.35,1.6,.44,2.23,.35,2.81-1.48,3.61-2.87,15.97-27.73,31.96-55.45,47.85-83.23,7.1-12.41,14.01-24.92,20.99-37.39,.9-1.61,.54-2.82-1.07-3.78-4.18-2.49-8.35-4.98-12.56-7.41-17.34-10.01-34.68-20.03-52.04-30-5.71-3.28-11.51-6.42-17.28-9.57-1.55-.85-2.6-.48-3.58,1.02-.25,.38-.5,.77-.73,1.16-8.19,14.12-16.42,28.22-24.54,42.38-13.28,23.13-26.51,46.29-39.71,69.47-1.7,2.99-3.23,6.1-4.65,9.24-.95,2.1-.5,3.09,1.41,4.2,8.77,5.07,17.55,10.15,26.33,15.21,3.15,1.82,6.33,3.59,9.8,5.56Zm-24.03-64.59c.12,.07,.24,.15,.36,.22,15.44-26.85,30.89-53.7,46.4-80.68-.84-.33-1.29-.56-1.77-.69-6.28-1.73-12.57-3.42-18.84-5.18-1.55-.44-2.46,.33-3.19,1.41-.47,.69-.74,1.55-.96,2.36-4.23,15.75-8.44,31.51-12.63,47.27-3.13,11.76-6.24,23.52-9.35,35.28Zm-10.18,10.17c.2-.22,.3-.28,.32-.36,2.7-10,5.39-19.99,8.09-29.99,5.21-19.36,10.42-38.72,15.67-58.07,.34-1.24-.12-1.63-1.19-1.63-6.56-.02-13.12-.04-19.68,.01-1.89,.02-2.74,.84-2.86,2.47-.14,1.88-.31,3.76-.31,5.64-.03,26.72-.03,53.44-.04,80.17,0,.53,0,1.07,0,1.76Zm-7.94,11.34c.14-.03,.27-.07,.41-.1,.41-30.66,.33-61.32,.14-92.38-7.23,2.19-14,4.22-20.74,6.32-1.63,.51-2.11,1.57-1.69,3.19,2.75,10.66,5.47,21.33,8.26,31.97,3.72,14.17,7.48,28.32,11.24,42.47,.76,2.85,1.59,5.69,2.39,8.53Zm21.47,45.78c.03-.25,.06-.49,.09-.74-4.57-1.23-9.15-2.47-13.72-3.7,.31,1.75,.64,3.37,2.31,3.55,3.76,.42,7.54,.61,11.32,.89Zm6.4,6.86c-.04-.16-.07-.31-.11-.47-3.99,0-7.98-.03-11.98,.03-.48,0-.95,.47-1.43,.72,.4,.53,.71,1.18,1.23,1.55,.46,.32,1.18,.51,1.72,.41,3.53-.69,7.04-1.48,10.56-2.24Zm-23.34-23.46c-.6,2.79-.11,3.83,2.27,4.59,3.06,.98,6.15,1.84,9.23,2.75,.06-.15,.12-.29,.19-.44-3.87-2.29-7.74-4.57-11.68-6.9ZM166.38,38.23c-.17-2.16-1.27-3.15-2.78-3.65-2.75-.91-5.55-1.68-8.33-2.5-.05,.12-.09,.24-.14,.36,3.53,2.1,6.83,4.64,11.25,5.8Zm-38.38-21.69c-.04,.19-.08,.37-.12,.56,2,.75,3.97,1.6,6.01,2.2,.81,.24,1.78-.06,2.67-.11-.67-.79-1.32-1.61-2.03-2.36-.18-.19-.56-.27-.85-.27-1.89-.02-3.79-.01-5.68-.01Zm-28.53-9.72c-2.05,.56-3.79,1.04-5.62,1.54,3,1.24,4.02,1.2,5.62-1.54Z"/><path d="M32.84,300v-20.91H111.05c.16,7.1,.31,14.01,.47,20.91H32.84Z"/><path d="M112.76,123.1c-.12-.87-.3-1.61-.31-2.34-.03-3.57,0-7.14-.02-10.71-.04-7.02-3.6-12.04-9.31-15.61-4.18-2.61-8.82-3.4-13.73-2.38-2.92,.61-3.71,.15-3.82-2.6-.25-5.9-.25-11.78,1.75-17.48,2.94-8.37,9.43-13.16,16.96-13.72,8.51-.64,15.33,2.74,19.61,10.43,.8,1.44,1.45,2.99,2.01,4.55,.3,.83,.72,.92,1.48,.87,2.17-.16,4.35-.37,6.53-.33,9.78,.19,16.55,6.95,18.39,15.33,1.54,7-.21,13.46-5.36,18.96-7.04,7.53-15.83,11.42-25.67,13.44-2.73,.56-5.47,1.03-8.52,1.59Z"/></g></g></svg>