<?xml version="1.0" encoding="UTF-8"?><svg id="Layer_1" xmlns="http://www.w3.org/2000/svg" viewBox="0 0 240.77 300"><path d="M240.77,232.87c0-21.65-16.97-39.2-37.9-39.2-5.88,0-11.46,1.39-16.42,3.86l-3.97-4.71,.92-.65-.28-7.67h-2.96l-.09,2.03c-2.95,0-7.48-3.7-7.48-3.7l2.49-5.45-1.48-.83,9.42-31.97,1.66-.74,3.79,1.29,7.48-.83-.28-3.6-1.66-.28-.28-2.77,2.59-.18-.09-1.02,11.73-.09,.19-.83,1.02-.46-.19-2.68-13.3-.51c12.61-5.68,13.72-13.58,13.72-13.58,15.52-14.41,7.21-29.8,7.21-29.8l.6-1.48c-1.85-.28-1.39-2.49-1.39-2.49,.92-1.02,1.2-3.88-1.66-4.43-2.86-.56-4.8-4.07-4.8-4.07-.92-1.48-1.29-2.59-5.82-8.32-4.53-5.73-10.62-13.67-22.91-21.99-12.29-8.31-18.01-10.07-23.65-11.92-5.64-1.85-7.39-2.4-16.81-6.84-9.42-4.43-17.83-2.49-17.83-2.49-1.66-1.66-8.5-.74-8.5-.74,0,0-1.66-1.2-2.77-3.7-1.11-2.49,.46-3.33,.46-3.33,2.96-1.76,2.31-4.99,2.31-4.99,.55-2.31-1.48-3.69-1.48-3.69-3.33-2.96-6.47-2.4-6.47-2.4,7.3-3.79,.09-3.23,.09-3.23-.74-6.19-12.66,1.48-12.66,1.48-2.96-.46-7.67,.28-8.04,1.29-.37,1.02-.74,2.03-3.51,2.12s-2.68,.83-2.68,.83c-.83,3.97-3.42,2.12-3.42,2.12-2.13-2.22-2.77-1.75-2.59,.09,.19,1.85-1.2,1.2-2.49,3.05-1.29,1.85-1.39,2.59-1.39,2.59-1.75,2.49,2.86,4.99,2.86,4.99-.37,4.99,.46,8.59,.46,8.59l1.66-.65s.09,2.96,.37,4.99c.28,2.03,2.5,3.23,2.5,3.23-.65,10.72,1.57,10.44,3.23,9.89,1.66-.55,2.13-1.39,2.13-1.39-.83,4.34,2.59,2.13,2.59,2.13-.46,4.25,2.13,1.2,2.13,1.2-.93,4.8,2.4,6.01,2.4,6.01,.83,.83,3.51-.92,5.91-2.4,2.4-1.48,5.45-3.42,5.45-3.42,.92,1.2,5.17,2.22,5.17,2.22-4.07,8.78-7.67,10.72-7.67,10.72-9.7,1.29-12.47,7.58-12.47,7.58-2.4,1.48-7.21,5.73-9.61,6.1-2.4,.37-12.57,.09-12.57,.09,0,0,2.77-2.03,1.48-3.33-1.29-1.29-3.05,1.94-4.9,3.7-1.85,1.76-2.13,.92-2.13,.92-2.31-2.4-4.71-3.05-6.37-1.66-1.66,1.39-1.29,3.05-1.29,3.05,0,0-9.79-14.04-10.62-14.87-.83-.83-2.86,1.2-2.86,1.2,0,0-.46,2.31-.37,2.59,.09,.28-3.33-5.08-4.34-6.37-1.02-1.29-2.22,.55-2.22,.55l-10.9-7.95-1.85,2.86c6.01,5.36,2.86,7.67,2.86,7.67,3.88,.09,7.94,5.08,7.94,5.08v4.07c-2.03,.19-2.86-.55-2.86-.55l-17.28-14.14-1.94,.37-1.85-1.66L0,61.64l14.6,13.12c6.65,5.36,14.14,6.1,14.14,6.1l3.6,3.7,7.67,1.2,20.97,35.29c-2.86,1.11,1.11,4.34,1.29,6.47,.19,2.13-1.66,3.7-1.66,3.7-1.85-1.39-1.48,.92-1.48,.92-.83-.83-1.39,0-1.39,0-.55,1.66-1.94,.65-1.94,.65,0,0-1.29-3.05-3.42-1.76-2.12,1.29,.92,5.17,.92,5.17,1.75,3.79,3.6,4.53,4.99,3.88,1.39-.65-.37-4.16-.37-4.16,2.4,.83,2.12-1.85,2.12-1.85,.93,1.66,1.94,.55,1.94,.55l4.07-.55s12.38,22.91,15.8,29.66c3.42,6.74,28.27,50.26,28.27,50.26l-.19,9.33c-2.31-.37-2.22,3.79-2.22,3.79-1.02-.65-5.91-1.39-5.91-1.39,0,0-.74-3.88-1.48-5.91-.74-2.03-1.48-1.76-1.48-1.76l1.39,7.21c-13.4-4.71-11.27-1.76-11.27-1.76,4.99,.46,12.47,3.6,12.47,3.6-.18,1.66,1.75,2.96,1.75,2.96-1.66,1.2-7.44,1.06-7.44,1.06-1.8,.42-.6,2.36-.6,2.36-16.08-.37-16.08,2.03-16.08,2.03-4.62,11.64,25.32,16.26,25.32,16.26l-2.96,5.17c-3.7,0-2.22,2.03-2.22,2.03,0,0-9.98-4.07-13.86-6.1-3.88-2.03-3.33-2.96-3.33-2.96-2.22-1.29-2.22-.55,.19,2.4,2.4,2.96,8.13,5.54,8.13,5.54,8.13,2.59,5.54,3.33,5.54,3.33-2.03,1.11,.37,3.51,.37,3.51l3.88-2.96,.55,11.09h3.33l.74-1.29,14.23,.56v2.96l-62.09-.55,1.11-4.62-1.11-8.68-7.39,.18-2.03,5.91-.48-.32c.06-.38,.11-.77,.11-1.16,0-3.78-3.06-6.84-6.84-6.84s-6.84,3.06-6.84,6.84,3.06,6.84,6.84,6.84c.95,0,1.85-.19,2.67-.54l-.08,.17,2.4,1.11-5.73,18.11-.84-1.29c-.57-3.3-3.61-5.82-7.29-5.82-4.08,0-7.39,3.1-7.39,6.93s3.31,6.93,7.39,6.93c2.51,0,4.72-1.17,6.06-2.97l.23,.47,.37,1.48,1.48,2.77,10.53-1.48,1.85-6.28,146.34-.55,4.43,7.21,4.62,.18h9.42l-12.35-27.04c20.22-.83,36.37-18.04,36.37-39.16Zm-138.31,30.54c-1.02-.74-2.4-3.79-2.4-3.79l2.49,1.85-.09,1.94Zm-1.2-5.27l1.94,1.66,.28,1.66c-2.59-1.48-2.22-3.33-2.22-3.33Zm2.77,1.75c-1.02-.07-1.75-1.81-2.02-2.54l2.11,1.53-.09,1.02Zm73.08-122.18s-5.96,15.52-8.59,24.95c-2.63,9.42-5.13,11.36-5.13,11.36,0,0-6.24-8.18-7.62-12.2-1.39-4.02-7.76-12.2-7.76-12.2,1.11,0,18.15-6.79,22.31-8.59,4.16-1.8,6.79-3.33,6.79-3.33Zm-74.47,89.39l2.68,.92v1.57c-1.02,.09-2.68-2.49-2.68-2.49Zm3.14,43.7v-.92l7.48-.18,.74,1.39-8.23-.28Zm13.95,.65h-2.03v-1.11l2.13-.18-.09,1.29Zm-15.06-3.14l1.2-11.27,1.11-.19,.56-2.4,2.49,1.2-.83,2.03,2.86,1.39,2.96,.65,9.42,3.97-1.02,4.9-18.76-.28Zm17-8.78s4.9,1.29,3.88,2.68c0,0-5.91-1.48-3.88-2.68Zm2.59,12.01s-.46-1.39,1.57-1.94c0,0,1.2,1.38-1.57,1.94Zm-5.73-149.12c-2.12,.83-15.43,8.5-2.12,24.39,0,0,1.11,8.5,1.39,15.52,.28,7.02,.09,30.86,.09,30.86,0,0-8.96-11.92-13.4-18.2-4.43-6.28-15.34-20.79-15.34-20.79,0,0-14.6-23.65-14.6-26.61l-23.1-40.93s7.85,.28,9.52,1.94c1.66,1.66,2.77,.65,3.14,1.85,.37,1.2,.92,3.23,3.7,1.29,2.77-1.94-1.66,3.42,3.51-.65,5.17-4.07,4.34-6.1,8.59-5.54,4.25,.55,5.73,1.48,7.67,0,0,0,12.75,.65,17.18-.37,4.44-1.02,8.69-2.03,11.09-7.85,2.4-5.82,5.73-11.92,5.73-11.92,0,0,.74,3.88,3.7,3.7,2.95-.18,3.23,1.2,5.73,2.86,2.49,1.66,2.12,2.86,5.82,2.59,0,0,2.03,3.6,4.44,3.79,0,0,4.62-.65,6.01,2.03,1.39,2.68,1.02,2.68,3.23,1.11,0,0,1.75,1.29,3.05,.55,0,0-1.02,4.16,2.77,2.77,0,0,.83,2.96,5.64,4.25,0,0-2.96,4.62-.28,6.47,0,0-4.16,2.22-7.76,2.96l-6.56,2.13s-1.02,2.77-.37,3.79c0,0-13.95,7.11-18.2,10.25-4.25,3.14-8.13,6.93-10.26,7.76Zm20.33,76.13s.04-.01,.11-.04c.23-.17,.82-1.07,1.92-5.42,1.48-5.82,.92-19.4,.92-19.4,6.01,5.45,12.66,16.08,12.66,16.08-1.93,4.29-14.24,8.33-15.5,8.74-.08,.06-.11,.04-.11,.04Zm3.42,75.76l2.96-10.16c3.14,1.11,16.81-6.84,16.81-6.84,2.8-.61,6-3.31,7.86-5.07,4.53,8.22,11.84,14.57,20.61,17.7l-.57,3.64,1.48,1.48-49.15-.74Z"/></svg>